<?xml version="1.0" standalone="no"?>
<!DOCTYPE svg PUBLIC "-//W3C//DTD SVG 20010904//EN"
 "http://www.w3.org/TR/2001/REC-SVG-20010904/DTD/svg10.dtd">
<svg version="1.0" xmlns="http://www.w3.org/2000/svg"
 width="512.000000pt" height="512.000000pt" viewBox="0 0 512.000000 512.000000"
 preserveAspectRatio="xMidYMid meet">
<metadata>
Created by potrace 1.14, written by Peter Selinger 2001-2017
</metadata>
<g transform="translate(0.000000,512.000000) scale(0.100000,-0.100000)"
fill="#000000" stroke="none">
<path d="M2401 4849 c-574 -55 -1082 -404 -1341 -920 -280 -558 -227 -1224
159 -1981 272 -532 748 -1153 1238 -1613 l103 -97 102 96 c368 342 797 865
1057 1288 546 888 662 1669 341 2307 -310 620 -972 986 -1659 920z m359 -304
c141 -21 261 -59 395 -124 277 -136 490 -349 626 -626 235 -482 171 -1033
-171 -1458 -203 -253 -519 -432 -850 -482 -260 -40 -539 1 -775 114 -294 140
-506 349 -646 636 -249 510 -160 1102 230 1527 192 209 490 367 781 413 114
18 294 18 410 0z"/>
<path d="M2240 4040 l0 -120 -96 0 c-121 0 -164 -13 -224 -67 -57 -51 -80
-108 -80 -195 l0 -58 -80 0 -80 0 0 -80 0 -80 80 0 80 0 0 -375 0 -376 25 -24
c20 -21 34 -25 80 -25 l55 0 0 -120 0 -120 160 0 160 0 0 120 0 120 240 0 240
0 0 -120 0 -120 160 0 160 0 0 120 0 120 55 0 c46 0 60 4 80 25 l25 24 0 376
0 375 80 0 80 0 0 80 0 80 -80 0 -80 0 0 56 c0 81 -18 129 -67 184 -57 63
-106 80 -235 80 l-98 0 0 120 0 120 -320 0 -320 0 0 -120z m855 -305 l25 -24
0 -256 0 -255 -560 0 -560 0 0 255 0 256 25 24 24 25 511 0 511 0 24 -25z
m-891 -734 c26 -27 31 -39 31 -81 0 -43 -5 -54 -33 -82 -28 -28 -39 -33 -82
-33 -43 0 -54 5 -82 33 -28 28 -33 39 -33 81 0 52 25 92 70 112 37 16 96 3
129 -30z m880 0 c26 -27 31 -39 31 -81 0 -43 -5 -54 -33 -82 -28 -28 -39 -33
-82 -33 -43 0 -54 5 -82 33 -28 28 -33 39 -33 81 0 52 25 92 70 112 37 16 96
3 129 -30z"/>
</g>
</svg>
